  
<svg width="73" height="92" viewBox="0 0 73 92" fill="none" xmlns="http://www.w3.org/2000/svg">
<rect x="12.522" y="24.5063" width="38.8166" height="26.8318" rx="13.4159" fill="#EAEAEA"/>
<path d="M8.94407 47.5819L3.57772 46.4192C1.43118 54.2899 6.26089 67.7952 14.221 72.5354C13.8632 64.7542 20.3923 61.6239 31.7511 61.6239C43.1098 61.6239 47.5818 63.5915 49.9072 72.0883C60.6399 65.434 61.3554 51.6663 60.3716 45.6143C59.4176 46.4192 56.9729 47.7966 54.8264 46.8664C51.3382 56.0786 43.6465 57.5097 32.7349 57.5097C21.8233 57.5097 14.5787 56.973 8.94407 47.5819Z" fill="#EAEAEA"/>
<circle cx="31.5776" cy="5.18841" r="3.57757" fill="#EAEAEA"/>
<path fill-rule="evenodd" clip-rule="evenodd" d="M30.8128 0.145343C26.1337 1.26709 25.2334 7.4214 29.3984 9.81282C29.792 10.0387 30.3381 10.2756 30.6121 10.3391L31.1101 10.4548L31.0593 12.2833L31.0083 14.1118L26.4469 14.2204C21.4788 14.3384 20.3617 14.5155 17.7713 15.596C12.5515 17.7729 8.51028 22.4082 7.07478 27.865L6.65656 29.4544L5.54537 29.8569C2.80817 30.8478 0.709034 33.2987 0.145925 36.1604C-0.135272 37.5901 0.0114078 41.167 0.402257 42.4055C0.562711 42.9144 0.988086 43.7596 1.34709 44.2838L2.00018 45.2366L2.02486 49.4403C2.05205 54.0714 2.29568 55.8073 3.38809 59.1502C6.83991 69.7129 16.0459 77.5895 27.0884 79.4278C29.9347 79.9016 34.4256 79.8611 37.2691 79.3355C52.4229 76.5355 63.0138 62.881 61.8565 47.6354C61.6949 45.5069 61.6992 45.4638 62.1223 44.9075C63.7798 42.7282 64.4162 39.2473 63.7236 36.1491C63.1292 33.4897 61.5307 31.4104 59.1747 30.2318C58.4633 29.8758 57.7328 29.5848 57.5512 29.5848C57.3358 29.5848 57.1838 29.4134 57.1144 29.0929C55.5741 21.9765 50.4934 16.6163 43.4717 14.6994C42.2923 14.3774 41.4497 14.3134 37.4927 14.2452L32.8866 14.166L32.8901 12.3502L32.8937 10.5342L34.1357 9.95092C35.0548 9.5191 35.5424 9.15169 36.0114 8.53724C38.0753 5.83439 37.2426 2.04771 34.2734 0.633323C32.9123 -0.0151109 32.0117 -0.142115 30.8128 0.145343ZM33.4277 2.26112C33.8913 2.49563 34.4471 2.98539 34.7594 3.43491C35.2066 4.07834 35.2955 4.38082 35.2955 5.25733C35.2955 6.13383 35.2066 6.43632 34.7594 7.07974C33.3248 9.14418 30.4205 9.14167 29.1099 7.07473C27.273 4.17833 30.3767 0.718111 33.4277 2.26112ZM42.9932 16.4701C49.2495 18.2936 53.4994 22.588 55.1757 28.7798C55.4782 29.8969 55.5147 30.7072 55.5147 36.2927C55.5147 41.8748 55.478 42.6892 55.1761 43.8056C53.4712 50.1111 48.952 54.5594 42.5884 56.196C41.5178 56.4715 40.3147 56.5056 31.8133 56.5029C22.4469 56.4999 22.2129 56.4913 20.8123 56.0987C14.7649 54.4031 10.222 49.7855 8.69613 43.7836C8.31744 42.2937 8.2924 41.8312 8.2924 36.2927C8.2924 30.7543 8.31744 30.2917 8.69613 28.8018C10.3457 22.3128 15.5016 17.4615 22.0362 16.2496C23.0175 16.0675 25.4683 16.0229 32.5288 16.0585C41.1955 16.1024 41.8153 16.1267 42.9932 16.4701ZM22.6672 23.5104C19.2703 24.0272 15.9992 26.1244 14.1979 28.9403C13.8273 29.5195 13.2724 30.6461 12.9645 31.4437L12.405 32.894V37.9026C12.405 42.8887 12.4071 42.9171 12.8842 44.2233C13.5847 46.1407 14.3818 47.3812 15.9008 48.9176C16.9862 50.0156 17.581 50.4458 18.9417 51.1176C21.7147 52.4866 21.9272 52.5073 32.515 52.4415C41.6046 52.3848 41.7595 52.3778 42.9932 51.9696C47.592 50.4477 50.7601 46.7092 51.5019 41.9288C51.792 40.059 51.6223 33.7569 51.2466 32.4468C50.3013 29.1497 47.9356 26.2287 45.0503 24.7955C42.2678 23.4135 42.4743 23.4366 32.5288 23.3945C27.6588 23.3739 23.2211 23.426 22.6672 23.5104ZM42.0013 25.5555C43.8257 26.0412 45.2335 26.8746 46.6663 28.3173C48.1415 29.8028 48.976 31.1954 49.4741 33.0037C49.9396 34.6934 49.9296 41.367 49.4591 42.9035C48.2333 46.9081 45.2376 49.6923 41.3556 50.435C39.3884 50.8114 24.2258 50.8021 22.4222 50.4234C18.5681 49.6142 15.3781 46.5637 14.3803 42.7332C13.9959 41.2573 13.9952 34.8104 14.3793 33.1808C15.252 29.4787 18.3849 26.3691 22.1381 25.4797C22.491 25.3962 26.8852 25.3205 31.9027 25.3117C39.3475 25.2989 41.2049 25.3438 42.0013 25.5555ZM6.41257 36.4482C6.41257 41.4312 6.59592 43.4407 7.22128 45.3132C7.36671 45.7489 7.48584 46.1376 7.48584 46.1772C7.48584 46.3371 6.27018 45.9708 5.48008 45.5728C2.82338 44.234 1.64457 41.8657 1.79679 38.1722C1.88087 36.133 2.27136 34.952 3.31583 33.58C3.82849 32.9066 5.73587 31.5524 6.17198 31.5524C6.36767 31.5524 6.41257 32.4665 6.41257 36.4482ZM58.7429 32.0737C59.8934 32.7336 60.8835 33.8303 61.483 35.1085C61.9242 36.0498 61.9543 36.2789 61.9543 38.7076C61.9543 41.1924 61.9325 41.3485 61.4354 42.425C60.7694 43.8671 59.2388 45.3241 57.8396 45.8475C56.3708 46.397 56.2819 46.3723 56.5903 45.4985C57.2385 43.6609 57.3929 41.973 57.3929 36.7202C57.3929 32.7044 57.4428 31.5528 57.6165 31.5541C57.7396 31.5551 58.2463 31.7889 58.7429 32.0737ZM21.636 33.3763C20.6549 33.9018 20.186 34.7288 20.1869 35.9321C20.1891 38.7995 23.686 39.7739 25.4467 37.3977C25.969 36.6925 25.972 35.0009 25.452 34.3045C24.4805 33.0033 23.0032 32.644 21.636 33.3763ZM39.4256 33.3786C36.9237 34.8327 37.9175 38.7076 40.7926 38.7076C42.9952 38.7076 44.3516 36.7009 43.4803 34.7313C42.7818 33.152 40.8971 32.5234 39.4256 33.3786ZM5.04397 47.4368C5.52104 47.6547 6.4657 47.9245 7.14329 48.0363L8.37522 48.2397L8.93976 49.2424C11.2478 53.3411 15.3608 56.472 20.2756 57.8713C21.6693 58.2681 21.9551 58.2803 31.2361 58.3414C39.4283 58.3955 40.9813 58.3638 42.3038 58.1161C45.0601 57.5996 47.7923 56.4142 50.0261 54.7655C51.992 53.3146 54.4464 50.4649 55.249 48.7015C55.4353 48.2924 55.6302 48.2041 56.7473 48.0239C57.4537 47.91 58.4594 47.6186 58.9822 47.3764C59.5049 47.1342 59.9755 46.936 60.0278 46.936C60.2741 46.936 59.9013 53.7368 59.5661 55.3615C58.7958 59.0951 57.1119 63.0021 54.987 65.9865C53.9109 67.4979 50.6884 71.0846 50.4066 71.0846C50.3361 71.0846 50.2213 70.7036 50.1514 70.2379C49.9575 68.9445 49.2529 67.2408 48.3506 65.8837C46.7956 63.5445 44.4332 61.8501 41.6523 61.0795C40.39 60.7298 39.8637 60.7098 31.9957 60.7123C22.928 60.7152 22.5091 60.7526 20.3218 61.7539C17.1048 63.2264 14.8012 66.045 13.8373 69.6875L13.4602 71.1126L11.976 69.6285C6.96387 64.6161 4.19215 58.3223 3.792 51.0439C3.68038 49.0149 3.82098 46.8553 4.05656 46.9782C4.12257 47.0127 4.5669 47.2191 5.04397 47.4368ZM40.8538 62.7707C44.2416 63.6355 46.8954 66.1076 48.0399 69.4643C48.2637 70.1208 48.4418 71.0828 48.4443 71.6487L48.449 72.6599L46.9883 73.5971C39.9403 78.1181 31.126 79.1944 23.0483 76.5203C20.9237 75.817 18.3527 74.5856 16.5423 73.4043L15.3177 72.605L15.4123 71.4421C15.5928 69.2276 17.0059 66.4795 18.7208 65.0082C19.8165 64.0684 21.672 63.0996 22.9848 62.7817C24.5773 62.3963 39.3512 62.387 40.8538 62.7707Z" fill="#AFAFAF"/>
<path d="M25.6001 41.6001C26.115 45.2324 28.7844 48.0001 32.0001 48.0001C35.2158 48.0001 37.8852 45.2324 38.4001 41.6001H25.6001Z" fill="#AFAFAF"/>
<path fill-rule="evenodd" clip-rule="evenodd" d="M34.4438 45.5998C33.7926 46.0977 32.9371 46.3998 32.0002 46.3998C31.0633 46.3998 30.2079 46.0977 29.5566 45.5998C30.2079 45.1019 31.0633 44.7998 32.0002 44.7998C32.9371 44.7998 33.7926 45.1019 34.4438 45.5998Z" fill="white"/>
<path d="M36.5 73.4042C36.5 63.5062 44.5062 55.5 54.4042 55.5C64.2704 55.5 72.3084 63.5068 72.3084 73.4042C72.3084 83.3022 64.3022 91.3084 54.4042 91.3084C44.5062 91.3084 36.5 83.3022 36.5 73.4042Z" fill="#EAEAEA" stroke="#AFAFAF"/>
<path d="M64.4163 71.0406H56.7371V63.3614C56.7371 62.0654 55.6679 60.9961 54.3718 60.9961C53.0757 60.9961 52.0065 62.0654 52.0065 63.3614V71.0406H44.3272C43.0312 71.0406 41.9619 72.1099 41.9619 73.406C41.9619 74.7021 43.0312 75.7713 44.3272 75.7713H52.0065V83.4505C52.0065 84.7466 53.0757 85.8159 54.3718 85.8159C55.6679 85.8159 56.7371 84.7466 56.7371 83.4505V75.7713H64.4163C65.7124 75.7713 66.7817 74.7021 66.7817 73.406C66.8141 72.1099 65.7448 71.0406 64.4163 71.0406Z" fill="white"/>
</svg>